{
    "asset": {
        "version": "2.0",
        "generator": "THREE.GLTFExporter"
    },
    "scenes": [
        {
            "name": "AuxScene",
            "nodes": [
                0
            ]
        }
    ],
    "scene": 0,
    "nodes": [
        {
            "matrix": [
                0.9999500004166653,
                0,
                -0.009999833334166664,
                0,
                0,
                1,
                0,
                0,
                0.009999833334166664,
                0,
                0.9999500004166653,
                0,
                -100,
                100,
                0,
                1
            ],
            "mesh": 0
        }
    ],
    "bufferViews": [
        {
            "buffer": 0,
            "byteOffset": 0,
            "byteLength": 25740,
            "target": 34962,
            "byteStride": 12
        },
        {
            "buffer": 0,
            "byteOffset": 25740,
            "byteLength": 25740,
            "target": 34962,
            "byteStride": 12
        },
        {
            "buffer": 0,
            "byteOffset": 51480,
            "byteLength": 17160,
            "target": 34962,
            "byteStride": 8
        },
        {
            "buffer": 0,
            "byteOffset": 68640,
            "byteLength": 23808,
            "target": 34963
        }
    ],
    "buffers": [
        {
            "byteLength": 92448,
            "uri": "data:application/octet-stream;base64,"
        }
    ],
    "accessors": [
        {
            "bufferView": 0,
            "componentType": 5126,
            "count": 2145,
            "max": [
                80,
                80,
                80
            ],
            "min": [
                -80,
                -80,
                -80
            ],
            "type": "VEC3"
        },
        {
            "bufferView": 1,
            "componentType": 5126,
            "count": 2145,
            "max": [
                1,
                1,
                1
            ],
            "min": [
                -1,
                -1,
                -1
            ],
            "type": "VEC3"
        },
        {
            "bufferView": 2,
            "componentType": 5126,
            "count": 2145,
            "max": [
                1.0078125,
                1
            ],
            "min": [
                -0.0078125,
                0
            ],
            "type": "VEC2"
        },
        {
            "bufferView": 3,
            "componentType": 5123,
            "count": 11904,
            "max": [
                2144
            ],
            "min": [
                0
            ],
            "type": "SCALAR"
        }
    ],
    "materials": [
        {
            "pbrMetallicRoughness": {
                "baseColorFactor": [
                    0,
                    0,
                    1,
                    1
                ],
                "metallicFactor": 0.9,
                "roughnessFactor": 0.5
            },
            "normalTexture": {
                "index": 0,
                "scale": 0.15,
                "extensions": {
                    "KHR_texture_transform": {
                        "scale": [
                            10,
                            6
                        ]
                    }
                }
            }
        }
    ],
    "textures": [
        {
            "sampler": 0,
            "source": 0
        }
    ],
    "samplers": [
        {
            "magFilter": 9729,
            "minFilter": 9987,
            "wrapS": 10497,
            "wrapT": 10497
        }
    ],
    "images": [
        {
            "mimeType": "image/png",
            "uri": "data:image/png;base64,"
        }
    ],
    "meshes": [
        {
            "primitives": [
                {
                    "mode": 4,
                    "attributes": {
                        "POSITION": 0,
                        "NORMAL": 1,
                        "TEXCOORD_0": 2
                    },
                    "indices": 3,
                    "material": 0
                }
            ]
        }
    ],
    "extensionsUsed": [
        "KHR_texture_transform"
    ]
}